<?xml version="1.0" encoding="utf-8"?>
<!-- Generator: Adobe Illustrator 14.0.0, SVG Export Plug-In  -->
<!DOCTYPE svg PUBLIC "-//W3C//DTD SVG 1.1//EN" "http://www.w3.org/Graphics/SVG/1.1/DTD/svg11.dtd" [
	<!ENTITY ns_flows "http://ns.adobe.com/Flows/1.0/">
]>
<svg version="1.1"
	 xmlns="http://www.w3.org/2000/svg" xmlns:xlink="http://www.w3.org/1999/xlink" xmlns:a="http://ns.adobe.com/AdobeSVGViewerExtensions/3.0/"
	 x="0px" y="0px" width="431px" height="38px" viewBox="1 5.6 431 38" style="enable-background:new 1 5.6 431 38;"
	 xml:space="preserve">
<style type="text/css">
<![CDATA[
	.st0{font-family:'Gotham-Bold';}
	.st1{font-family:'Gotham-Book';}
	.st2{fill:#333333;}
	.st3{font-size:46;}
]]>
</style>
<defs>
</defs>
<g>
	<path class="st2" d="M1.656,34.407l4.187-5.015c2.898,2.393,5.935,3.91,9.615,3.91c2.898,0,4.646-1.15,4.646-3.036v-0.092
		c0-1.794-1.104-2.715-6.487-4.095c-6.487-1.656-10.673-3.45-10.673-9.845v-0.092c0-5.843,4.692-9.707,11.271-9.707
		c4.692,0,8.695,1.472,11.961,4.094l-3.68,5.337c-2.853-1.979-5.659-3.175-8.373-3.175s-4.141,1.242-4.141,2.807v0.092
		c0,2.116,1.38,2.807,6.947,4.232c6.533,1.702,10.213,4.049,10.213,9.661v0.092c0,6.396-4.876,9.983-11.823,9.983
		C10.443,39.56,5.521,37.857,1.656,34.407z"/>
	<path class="st2" d="M40.113,13.429h-9.799V6.896h26.683v6.533h-9.799V39.1h-7.085V13.429z"/>
	<path class="st2" d="M62.422,6.896h24.291v6.303H69.461v6.533h15.182v6.303H69.461v6.763h17.482V39.1H62.422V6.896z"/>
	<path class="st2" d="M90.482,6.896h7.821l8.419,22.68l8.419-22.68h7.637l-13.02,32.434h-6.256L90.482,6.896z"/>
	<path class="st2" d="M127.742,6.896h24.291v6.303h-17.252v6.533h15.182v6.303h-15.182v6.763h17.482V39.1h-24.521V6.896z"/>
	<path class="st2" d="M157.826,23.09v-0.092c0-8.833,6.486-16.654,16.147-16.654c5.429,0,8.787,1.564,12.007,4.279l-2.346,2.76
		c-2.484-2.163-5.245-3.681-9.799-3.681c-7.131,0-12.237,6.027-12.237,13.204v0.092c0,7.683,4.922,13.388,12.743,13.388
		c3.681,0,7.085-1.427,9.293-3.221V25.16h-9.799v-3.267h13.295v12.836c-2.99,2.668-7.499,4.922-12.928,4.922
		C164.083,39.651,157.826,32.291,157.826,23.09z"/>
	<path class="st2" d="M195.316,6.896h13.848c3.957,0,7.131,1.196,9.155,3.22c1.564,1.564,2.484,3.818,2.484,6.349v0.092
		c0,5.336-3.681,8.465-8.741,9.385l9.891,13.157h-4.463l-9.339-12.514h-9.201V39.1h-3.634V6.896z M208.841,23.32
		c4.831,0,8.281-2.484,8.281-6.625v-0.092c0-3.957-3.036-6.349-8.234-6.349h-9.938V23.32H208.841z"/>
	<path class="st2" d="M228.067,25.62V6.896h3.635V25.39c0,6.947,3.681,10.857,9.845,10.857c5.935,0,9.707-3.588,9.707-10.627V6.896
		h3.635v18.448c0,9.386-5.383,14.262-13.434,14.262C233.496,39.605,228.067,34.729,228.067,25.62z"/>
	<path class="st2" d="M263.487,6.896h3.404l20.288,25.809V6.896h3.542V39.1h-2.897l-20.795-26.407V39.1h-3.542V6.896z"/>
	<path class="st2" d="M297.343,6.896h3.956l9.201,26.821l8.833-26.913h2.99l8.833,26.913l9.201-26.821h3.818L332.675,39.33h-3.083
		l-8.833-26.131L311.88,39.33h-3.036L297.343,6.896z"/>
	<path class="st2" d="M350.748,6.896h23.279v3.312h-19.645v10.995h17.574v3.312h-17.574v11.271h19.874V39.1h-23.509V6.896z"/>
	<path class="st2" d="M381.568,6.896h3.635v28.845h18.126V39.1h-21.761V6.896z"/>
	<path class="st2" d="M410.042,6.896h3.634v28.845h18.127V39.1h-21.761V6.896z"/>
</g>
</svg>
